<svg id="Layer_1" data-name="Layer 1" xmlns="http://www.w3.org/2000/svg" viewBox="0 0 462.28 948.46"><defs><style>.cls-1{fill:none;stroke-width:2px;}.cls-1,.cls-2,.cls-25{stroke:#6d282c;}.cls-1,.cls-13,.cls-2,.cls-25{stroke-miterlimit:10;}.cls-2,.cls-25{fill:#bc151c;}.cls-3{fill:#cc2145;}.cls-23,.cls-24,.cls-3{opacity:0.3;}.cls-4{fill:#d6c15a;}.cls-5{fill:#c99a2a;}.cls-6{fill:#d7bf6e;}.cls-7{fill:#cca82e;}.cls-8{fill:#cb9a14;}.cls-9{fill:#d3aa27;}.cls-10{fill:#c49423;}.cls-11{fill:#daa936;}.cls-12{fill:#dfba3f;}.cls-13{fill:#1a1b1b;stroke:#000;stroke-width:0.75px;}.cls-14{fill:#c1572e;}.cls-15{fill:#d3aa32;}.cls-16{fill:#c99823;}.cls-17{fill:#d3b229;}.cls-18{fill:#dab24f;}.cls-19{fill:#caa42f;}.cls-20{fill:#cc9a41;}.cls-21{fill:#d9917d;}.cls-22{fill:#f4c0bc;}.cls-23{fill:#e492ac;}.cls-24{fill:#d85b74;}.cls-25{stroke-width:0.5px;}</style></defs><path class="cls-1" d="M230.66,561.41c-14.34,77-9.69,135.92-2.62,175.77,4.05,22.83,8,34.25,11,58.11,8.08,64-3.08,117.38-13.73,152.38" transform="translate(0.5 0.5)"/><path class="cls-2" d="M233.84,559.35c19.2-5.37,46.25-15.63,71.46-36.7,12.7-10.61,26.32-24.22,41.21-41C363,463.07,395.39,421,405.26,404.32c11.31-19.15,37.19-57.48,47.79-113,3.14-16.46,9.46-51.26,1.75-94.42-4.41-24.68-16.42-86.47-73.65-136.89C321.23,7.24,250.54,1.09,229.54,0h-.61c-21,1.09-91.68,7.24-151.6,60C20.1,110.45,8.08,172.24,3.68,196.92c-7.71,43.16-1.39,78,1.75,94.42,10.6,55.5,36.48,93.83,47.79,113,9.86,16.7,42.3,58.75,58.74,77.31,14.89,16.8,28.52,30.41,41.21,41,25.22,21.07,52.27,31.33,71.47,36.7a10.74,10.74,0,0,0,9.2,0Z" transform="translate(0.5 0.5)"/><path class="cls-3" d="M325.25,127.24c19.57,41.24,25.29,76.57,27,100.19,5.91,83.09-28.86,151.44-50,193-7.57,14.88-14.63,26.92-19.73,35.25-2.85,26.59-5.7,61.31-8.55,87.91,24.35-21.4,71.16-56.61,104.19-101,32.56-43.76,59.93-84.59,72.73-141,6.78-29.84,24.42-94.13-8.08-150.77-13.5-23.53-17.25-46.23-29.88-56.13C394.06,101.88,344.1,120,325.25,127.24Z" transform="translate(0.5 0.5)"/><path class="cls-4" d="M312.17,277.94c-1.05,2.38-2.23,4.74-3.47,7-4.41,8.12-9.66,15.23-13.27,18.57-21.1,19.48-51,20.26-66.45,20.67-3.06.07-6.26.16-9.53.18-16,.12-34-1.2-49-11.36a54.4,54.4,0,0,1-5.31-4.08c-4.08-3.56-16.69-14.55-16.74-31-.05-15.24,10.58-26.23,16.26-30.79.69.65,1.42,1.31,2.19,2-5.08,4.62-7.59,11.88-8.51,14.55-5.06,14.65,1.88,27.66,4.71,33l.58,1.09a13.19,13.19,0,0,1,1-4c1-2.4,2.53-4.79,11.74-6.73l.82-.16a31.46,31.46,0,0,1,6.77-.66h.37l.73,0c1,.05,2,.15,2.93.29,4.45.63,8.76,2.05,15.24,3,2.34.35,4.95.63,8,.79,7.54.4,13.46-.19,21.45-1,1.76-.18,3.44-.34,5.08-.53a35.44,35.44,0,0,0,5.91-10.3,32.81,32.81,0,0,0,1.91-9.09c7.77,6.43,18.6,11.3,30.22,14a85.39,85.39,0,0,0,8.68-4.46c7.38-4.32,18-14.56,22.5-24.11a26.72,26.72,0,0,0,2.46-9.43C296,256,278.17,262,264.56,257.76c-9.92-3.07-15.87-11-20.12-17.18a39.88,39.88,0,0,0,4-9.51c9.94-.45,12.38-.08,24-1.36,22.44-2.48,29.07-5.6,34.62-3.47a1.48,1.48,0,0,1,.29.12l.25.11a2.48,2.48,0,0,1,.37.17l.2.1.36.2.53.31.45.3.31.22.4.3c.16.12.31.25.46.38a15.61,15.61,0,0,1,1.58,1.57c.12.15.25.29.37.45s.09.1.13.16.29.37.43.57.24.33.35.51l.05.07c.12.18.23.36.34.54s.33.55.48.84.16.27.23.42.24.47.36.71.23.51.34.77a3.05,3.05,0,0,1,.13.32c.11.25.21.5.31.76s.23.64.34,1,.13.4.18.6.16.51.23.77l.09.31.09.34c.08.32.16.64.23,1l0,.08C319.51,251.75,316.81,267.46,312.17,277.94Z" transform="translate(0.5 0.5)"/><path class="cls-5" d="M316.93,240.17c-2.92,5.17-1,16.53-8.94,29.4-4.17,6.76-9.78,11.85-16.21,16.16s-13.55,7.79-20.94,11.4a74.37,74.37,0,0,1-15,5.73c-1.55-3.68-1.7-7.14-.18-10.16,2.71-5.37,8.26-4.12,20.1-9.32a85.39,85.39,0,0,0,8.68-4.46c7.38-4.32,18-14.56,22.5-24.11a26.72,26.72,0,0,0,2.46-9.43c.63-7.88-2-14.71-2.37-19.14a1.48,1.48,0,0,1,.29.12l.25.11a2.48,2.48,0,0,1,.37.17l.2.1.36.2.53.31.45.3.31.22.4.3c.16.12.31.25.46.38a15.61,15.61,0,0,1,1.58,1.57c.12.15.25.29.37.45s.09.1.13.16.29.37.43.57.24.33.35.51l.05.07c.12.18.23.36.34.54s.33.55.48.84.16.27.23.42.24.47.36.71.23.51.34.77a3.05,3.05,0,0,1,.13.32c.11.25.21.5.31.76s.23.64.34,1,.13.4.18.6.16.51.23.77a2.81,2.81,0,0,1,.08.31,3.37,3.37,0,0,1,.1.34c.08.32.16.64.23,1Z" transform="translate(0.5 0.5)"/><path class="cls-6" d="M310.6,243.49c-2.68,3.09-7.33,4.17-7.85,3.45s2.58-1.81,3.67-4.92c1.32-3.81-1.08-8.08-5.24-15.26l-.65-1.11c3.62-.34,6,0,8.5,1.6l.5.33h0a13.77,13.77,0,0,1,2.64,4.58C312.4,232.85,314.41,239.12,310.6,243.49Z" transform="translate(0.5 0.5)"/><path class="cls-7" d="M309.4,245.38a26.72,26.72,0,0,1-2.46,9.43c-4.46,9.55-15.12,19.79-22.5,24.11a85.39,85.39,0,0,1-8.68,4.46c-2.19-.51-9.64,2.85-13,1.69-2.63-.89-21.07,7.21-26.17,4.43-2.65-1.45,5.15-12.31,7.33-19.68.79-2.69,0-5.91.42-12.06a37.32,37.32,0,0,0-4.77-10.37,41.38,41.38,0,0,0,4.9-6.81c4.25,6.16,10.2,14.11,20.12,17.18C278.17,262,296,256,309.4,245.38Z" transform="translate(0.5 0.5)"/><path class="cls-8" d="M245.54,269.25a32.88,32.88,0,0,1-1.91,9.1,35.44,35.44,0,0,1-5.91,10.3c-1.64.18-3.32.35-5.08.52-8,.8-13.91,1.39-21.45,1-3-.17-5.63-.45-8-.79-6.48-.95-10.79-2.36-15.24-3-1-.13-1.93-.23-2.93-.28-.24,0-.48,0-.73,0H184a32.11,32.11,0,0,0-6.77.66l-.82.17a37,37,0,0,1-8.6-16.9,36.11,36.11,0,0,1,1.75-18.84l.87.63a55.31,55.31,0,0,0,16.22,8.37,82.11,82.11,0,0,0,16.62,2.43c.56,0,1.13,0,1.69,0a46.45,46.45,0,0,0,29.18-10.11,44.55,44.55,0,0,0,5.45-5.18A35.66,35.66,0,0,1,245.54,269.25Z" transform="translate(0.5 0.5)"/><path class="cls-9" d="M312.17,277.94c-4.8,10.84-12.11,21.31-16.74,25.59a70.75,70.75,0,0,1-26.27,15c-6.54-5.27-11.22-10.67-13.32-15.67a74.37,74.37,0,0,0,15-5.73C285.7,289.86,299.68,283,308,269.57c7.95-12.87,6-24.23,8.94-29.4C319.51,251.75,316.81,267.46,312.17,277.94Z" transform="translate(0.5 0.5)"/><path class="cls-7" d="M176.36,287c-9.21,1.94-10.73,4.33-11.74,6.73a13.19,13.19,0,0,0-1,4l-.58-1.09c-2.83-5.31-9.77-18.32-4.71-33,.92-2.67,3.43-9.93,8.51-14.55.83.69,1.7,1.39,2.66,2.11a36.11,36.11,0,0,0-1.75,18.84A36.92,36.92,0,0,0,176.36,287Z" transform="translate(0.5 0.5)"/><path class="cls-10" d="M275.55,279.91c8-2.63,12.55-2.36,14.65-.5,4.45,4,.19,17.84-7.85,27.07-12.71,14.58-33.46,16-59.39,17.72-5.73.38-26,1.48-44.21-6.4-5.4-2.34-10.84-5.56-13.61-11.32-.57-1.2-2.92-7.16-.52-12.79,1-2.47,2.62-4.93,12.56-6.89,12.26-2.43,16.58,2.51,34,3.44,7.54.41,13.46-.19,21.45-1,7.75-.78,14-1.4,22-3.45C263.41,283.56,263.51,283.84,275.55,279.91Z" transform="translate(0.5 0.5)"/><path class="cls-11" d="M292,285.13a105.41,105.41,0,0,1-22.72,13c-7.15,3-43.19,17.06-78.49,3.45a105,105,0,0,1-16.77-8.5c2.12.29,4.29.93,6.83.13a12.33,12.33,0,0,0,7.14-6.73c6.06.86,11.85,3.17,23.21,3.78,7.54.4,13.46-.19,21.45-1,1.76-.18,3.44-.34,5.08-.53l1.62-.18c-1.23,1.52-2,3.06-1.47,4.15,1.51,3,12.23.83,23.55-1.48,18.77-3.81,22.68-7.66,24.59-10.33a27.25,27.25,0,0,0,1.73-2.66,5.5,5.5,0,0,1,2.46,1.18C291.51,280.58,292.06,282.61,292,285.13Z" transform="translate(0.5 0.5)"/><path class="cls-12" d="M287.74,278.23a27.25,27.25,0,0,1-1.73,2.66c-1.91,2.67-5.82,6.52-24.59,10.33-11.32,2.31-22,4.49-23.55,1.48-.55-1.09.24-2.63,1.47-4.15a109.23,109.23,0,0,0,15.28-2.74c8.79-2.25,8.89-2,20.93-5.9C281.25,278,285.19,277.64,287.74,278.23Z" transform="translate(0.5 0.5)"/><path class="cls-12" d="M188,286.46a12.33,12.33,0,0,1-7.14,6.73c-4.41,1.38-7.7-1.54-11.51.5-2.87,1.52-3.82,4.67-4.19,5.9-.06.2-.11.4-.16.61a14.11,14.11,0,0,0-.23,5.33,18.2,18.2,0,0,1-1.12-7.8,13.19,13.19,0,0,1,1-4c1-2.4,2.53-4.79,11.74-6.73l.82-.16a31.46,31.46,0,0,1,6.77-.66h.37l.73,0C186.05,286.22,187,286.32,188,286.46Z" transform="translate(0.5 0.5)"/><path id="eye" class="cls-13" d="M170.9,199.7c-1.57,2-3.14,4.42-2.74,6.39.26,1.28,3.71-.35,6-2.73s3.38-5.19,2.2-5.88S173.12,196.91,170.9,199.7Z" transform="translate(0.5 0.5)"/><path class="cls-14" d="M163.57,198.22a36.36,36.36,0,0,0-6.65,9.53l-.15.31c-1.64,3.57-1.84,5.69-3.66,10.83a86.41,86.41,0,0,1-3.45,8.33c-.26.55-.51,1.06-.74,1.51l-.3-.09c-1.12-1.65-2.25-3.43-3.36-5.32-3.07-5.22-4.61-9-4.71-13.29a15.22,15.22,0,0,1,1.57-7.38,11.51,11.51,0,0,1,3.66-4.43,10.68,10.68,0,0,1,4.71-2c2.33-.33,3,.47,8.37,1.48a19,19,0,0,0,4.68.48Z" transform="translate(0.5 0.5)"/><path class="cls-15" d="M249.91,220.36a40,40,0,0,1-1.46,10.71c-.26,1-.56,1.89-.89,2.81h0c-5.61,9.47-9.3,12.37-17,18s-16.22,7.32-21.46,8.36a66.43,66.43,0,0,1-17.55,1.09h0c-3-.57-4.92-1.09-4.92-1.09a55.34,55.34,0,0,1-16.22-8.36,53.94,53.94,0,0,1-5.72-4.71c-1.47-1.37-2.81-2.73-4.23-4.15a99.33,99.33,0,0,1-11.81-14.36l.3.09a86.14,86.14,0,0,0,4.19-9.84c1.82-5.14,2-7.26,3.66-10.83a36,36,0,0,1,6.8-9.84h0a3.69,3.69,0,0,0,1.6-.48,10.91,10.91,0,0,0,2.52-2,76.09,76.09,0,0,1,14.13-11.1,5.11,5.11,0,0,0,.1,3.3A12.36,12.36,0,0,0,183,190c1.67,2.57,4.18,3.81,8.28,4.15a61.74,61.74,0,0,0,11-.37c1.13-.11,3.13-.32,5.42-.77,4.67,5.47,15.45,11.06,25.45,13.07a56.74,56.74,0,0,0,14.51,1.07A39.94,39.94,0,0,1,249.91,220.36Z" transform="translate(0.5 0.5)"/><path class="cls-6" d="M219.56,187.39c-2.58,3.24-7.69,4.83-11.85,5.63-2.29.45-4.29.66-5.42.77a61.74,61.74,0,0,1-11,.37c-4.1-.34-6.61-1.58-8.28-4.15a12.36,12.36,0,0,1-1.08-2.12,5.11,5.11,0,0,1-.1-3.3,47.84,47.84,0,0,1,9.68-4.63A50.2,50.2,0,0,1,204.91,178a47.25,47.25,0,0,1,12.85,1.76c.53.14,1.06.3,1.58.47h0C221.35,182.12,222,184.32,219.56,187.39Z" transform="translate(0.5 0.5)"/><path class="cls-16" d="M196.54,228.24c-1.43.16-19.19,2.34-22,12.79a12.33,12.33,0,0,0,2.09,10.34c6.27,8.3,22,5.76,27.21,4.92,8.92-1.45,26-6.52,26.16-13.78C230.18,235,212.14,226.5,196.54,228.24Z" transform="translate(0.5 0.5)"/><path class="cls-17" d="M247.67,207.16a56.74,56.74,0,0,1-14.51-1.07c-10-2-20.78-7.6-25.45-13.07,4.16-.8,9.27-2.39,11.85-5.63,2.45-3.07,1.79-5.27-.22-7.12C232.72,184.52,243.27,194.53,247.67,207.16Z" transform="translate(0.5 0.5)"/><path class="cls-18" d="M170.38,220.86c-4.35,10.36-3.65,18.64-5.76,18.7-2.54.06-5.3-11.87-5.76-22.15-.26-5.81.49-9.88,2.1-13.23.53-1.09,1.85-3.56,6.8-8.42a90.39,90.39,0,0,1,14.13-11.32,8.81,8.81,0,0,0,3,7.65,9.65,9.65,0,0,0,6.38,2.07.61.61,0,0,1,.05.12C193.52,199.62,178.58,201.28,170.38,220.86Z" transform="translate(0.5 0.5)"/><path class="cls-19" d="M247.56,233.89c-6,16.74-22.82,28.79-42.65,28.79a74.67,74.67,0,0,1-13.37-1.37,66.43,66.43,0,0,0,17.55-1.09c5.24-1,13.66-2.71,21.46-8.36S242,243.36,247.56,233.89Z" transform="translate(0.5 0.5)"/><path class="cls-20" d="M162.53,242c-.53.49-2.39-1.61-3.14-2.46-2.62-3-2.55-3.18-5.76-7.39-.91-1.19-2.25-2.91-4-4.95a86.41,86.41,0,0,0,3.45-8.33c1.82-5.14,2-7.26,3.66-10.83l.15-.31c-.55,5.42-1.51,13.12-.15,21a25.94,25.94,0,0,0,3.14,8.86C162.44,241.93,162.53,241,162.53,242Z" transform="translate(0.5 0.5)"/><path class="cls-21" d="M159.65,199.45c-.21-.57-1.54-.87-4.19-1.48-.94-.21-2.61-.49-2.61-.49a8.2,8.2,0,0,0-4.19.49,5.21,5.21,0,0,0-2.09,2c-.63.91-.57,1.32-.53,1.48a1.81,1.81,0,0,0,1.05,1,18.07,18.07,0,0,0,3.66,1.48c3.19.75,4.81,1.11,5.76.49.14-.09.23-.17,1.31-1.72C159.69,200,159.74,199.7,159.65,199.45Z" transform="translate(0.5 0.5)"/><path class="cls-22" d="M156.51,199.45c0-.18-.48-.26-4.19-1a4.14,4.14,0,0,0-2.61,0c-.5.21-1.13.66-1.05,1s.41.29,3.14.49c1.5.11,2.72.64,3.66.49A1.37,1.37,0,0,0,156.51,199.45Z" transform="translate(0.5 0.5)"/><path id="eye-2" data-name="eye" class="cls-13" d="M170.9,199.7c-1.57,2-3.14,4.42-2.74,6.39.26,1.28,3.71-.35,6-2.73s3.38-5.19,2.2-5.88S173.12,196.91,170.9,199.7Z" transform="translate(0.5 0.5)"/><path class="cls-23" d="M116.3,76c-18.45,13-56.74,43.84-76.72,96.48-18,47.34-11.86,87.87-7.89,112.15C39.92,335,61.81,371.73,76,391.8l73.21-70.91c-2.64-22.75-11.27-58.33-4.38-91.13,6.48-30.84,21.48-67.89,32-91.94Q146.56,106.89,116.3,76Z" transform="translate(0.5 0.5)"/><path class="cls-24" d="M399.56,94.66c17.91,22.64,47.19,66.7,53.49,127.41a249,249,0,0,1-2.19,63.5c-8.94,56-34,94.55-57.43,129.88-19.78,29.79-52.07,71.65-102.15,113.8l2.19-14.84a625.2,625.2,0,0,0,79.79-88.24c27.33-36.76,47.43-63.79,60.5-105.55,5.9-18.87,19.7-65,7.45-123.29-9.7-46.25-31.41-79.41-45.15-97.31C397.23,98.24,398.39,96.45,399.56,94.66Z" transform="translate(0.5 0.5)"/><path class="cls-25" d="M232.53,559c-1.86-.62-6.27,22.8-26.31,38-3.8,2.89-10.76,7.46-10.19,8.35s7.22-3.55,15.78-3.09A26.42,26.42,0,0,1,225,606.88a245.64,245.64,0,0,1,3.94-27.83C231.17,567.77,233.66,559.32,232.53,559Z" transform="translate(0.5 0.5)"/><path class="cls-25" d="M230.33,560.4a104.5,104.5,0,0,0,16.45,30A110.27,110.27,0,0,0,266.86,610a52.36,52.36,0,0,0-28.67-6.22,77.35,77.35,0,0,0,.05-16.46A79.26,79.26,0,0,0,230.33,560.4Z" transform="translate(0.5 0.5)"/><path class="cls-25" d="M230.66,561.41a118.59,118.59,0,0,1-3.28,24.12,122,122,0,0,1-11.84,30.31l30.58-3.71a273.18,273.18,0,0,1-10.52-30.31C233.58,574.7,232,567.88,230.66,561.41Z" transform="translate(0.5 0.5)"/></svg>