<svg id="Layer_1" data-name="Layer 1" xmlns="http://www.w3.org/2000/svg" viewBox="0 0 691.37 607.09"><defs><style>.cls-1,.cls-10,.cls-11,.cls-12,.cls-13,.cls-14,.cls-15,.cls-16,.cls-17,.cls-18,.cls-19,.cls-2,.cls-3,.cls-4,.cls-5,.cls-6,.cls-7,.cls-8,.cls-9{fill:none;stroke-miterlimit:10;stroke-width:2px;}.cls-1{stroke:#d6c15a;}.cls-2{stroke:#c99a2a;}.cls-3{stroke:#d7bf6e;}.cls-4{stroke:#cca82e;}.cls-5{stroke:#cb9a14;}.cls-6{stroke:#d3aa27;}.cls-7{stroke:#c49423;}.cls-8{stroke:#daa936;}.cls-9{stroke:#dfba3f;}.cls-10{stroke:#000;}.cls-11{stroke:#c1572e;}.cls-12{stroke:#d3aa32;}.cls-13{stroke:#c99823;}.cls-14{stroke:#d3b229;}.cls-15{stroke:#dab24f;}.cls-16{stroke:#caa42f;}.cls-17{stroke:#cc9a41;}.cls-18{stroke:#d9917d;}.cls-19{stroke:#f4c0bc;}</style></defs><path class="cls-1" d="M667,412.79c-4.09,9.84-8.66,19.58-13.48,29-17.14,33.55-37.54,62.93-51.59,76.72-82,80.51-198.34,83.74-258.25,85.41-11.89.32-24.3.67-37,.77-62.1.47-132.09-5-190.43-47A214,214,0,0,1,95.59,540.9c-15.86-14.7-64.87-60.13-65.07-128.11-.18-63,41.14-108.4,63.18-127.21,2.7,2.68,5.53,5.39,8.54,8.11-19.77,19.12-29.51,49.09-33.08,60.13-19.69,60.54,7.3,114.32,18.3,136.24.77,1.55,1.52,3,2.23,4.5a58.16,58.16,0,0,1,3.87-16.7c3.94-9.88,9.82-19.76,45.63-27.77,1-.25,2.09-.47,3.17-.7a117.61,117.61,0,0,1,26.31-2.72c.39,0,.78,0,1.18,0h.27c.95,0,1.91.06,2.84.12A114,114,0,0,1,184.35,448c17.28,2.62,34,8.48,59.21,12.38,9.09,1.43,19.26,2.59,31,3.26,29.33,1.67,52.33-.77,83.38-4.07,6.83-.71,13.36-1.4,19.72-2.15a148.53,148.53,0,0,0,23-42.58,143.18,143.18,0,0,0,7.44-37.58c30.18,26.57,72.29,46.71,117.45,58a319.29,319.29,0,0,0,33.72-18.4c28.67-17.86,70.09-60.17,87.44-99.64a116.53,116.53,0,0,0,9.57-39c-52,43.8-121.37,68.55-174.28,51.16-38.56-12.69-61.66-45.53-78.17-71a173,173,0,0,0,15.58-39.32c38.63-1.84,48.11-.31,93.09-5.6,87.21-10.25,113-23.14,134.57-14.35a12.17,12.17,0,0,1,1.12.48c.33.13.65.29,1,.45.49.23,1,.45,1.42.71a8.67,8.67,0,0,1,.79.43c.47.24.94.53,1.39.81.69.41,1.38.84,2.07,1.31s1.18.81,1.75,1.24c.41.28.79.59,1.18.89s1.06.81,1.56,1.24,1.22,1,1.81,1.59a58.92,58.92,0,0,1,6.13,6.48c.48.59,1,1.2,1.44,1.83.16.23.34.45.51.7.57.75,1.12,1.52,1.64,2.33s.94,1.39,1.39,2.1l.18.28c.47.76.92,1.51,1.34,2.26.65,1.12,1.28,2.28,1.87,3.46.31.57.61,1.14.88,1.73.49,1,.93,2,1.38,3s.92,2.08,1.34,3.16c.19.42.35.87.51,1.32.41,1,.81,2.07,1.18,3.15.47,1.3.92,2.64,1.32,4,.27.81.51,1.62.73,2.46.33,1,.61,2.09.88,3.17.12.43.24.85.34,1.28s.25.93.35,1.42c.33,1.32.63,2.65.91,4l.07.3C695.5,304.59,685,369.5,667,412.79Z" transform="translate(1 1)"/><path class="cls-2" d="M685.48,256.7c-11.33,21.38-3.85,68.35-34.76,121.52-16.2,27.92-38,48.95-63,66.76-24.75,17.65-52.65,32.19-81.38,47.12-26.9,14-45.92,20.49-58.28,23.69-6-15.21-6.61-29.51-.69-42,10.53-22.19,32.11-17,78.12-38.54a319.29,319.29,0,0,0,33.72-18.4c28.67-17.86,70.09-60.17,87.44-99.64a116.53,116.53,0,0,0,9.57-39c2.44-32.56-7.91-60.8-9.21-79.1a12.17,12.17,0,0,1,1.12.48c.33.13.65.29,1,.45.49.23,1,.45,1.42.71a8.67,8.67,0,0,1,.79.43c.47.24.94.53,1.39.81.69.41,1.38.84,2.07,1.31s1.18.81,1.75,1.24c.41.28.79.59,1.18.89s1.06.81,1.56,1.24,1.22,1,1.81,1.59a58.92,58.92,0,0,1,6.13,6.48c.48.59,1,1.2,1.44,1.83.16.23.34.45.51.7.57.75,1.12,1.52,1.64,2.33s.94,1.39,1.39,2.1l.18.28c.47.76.92,1.51,1.34,2.26.65,1.12,1.28,2.28,1.87,3.46.31.57.61,1.14.88,1.73.49,1,.93,2,1.38,3s.92,2.08,1.34,3.16c.19.42.35.87.51,1.32.41,1,.81,2.07,1.18,3.15.47,1.3.92,2.64,1.32,4,.27.81.51,1.62.73,2.46.31,1,.61,2.09.88,3.17.12.43.24.85.32,1.28a13.44,13.44,0,0,1,.37,1.42c.33,1.32.63,2.65.91,4Z" transform="translate(1 1)"/><path class="cls-3" d="M660.89,270.45c-10.43,12.75-28.51,17.2-30.5,14.23-1.69-2.5,10-7.46,14.23-20.33,5.15-15.74-4.19-33.37-20.33-63-.92-1.67-1.75-3.19-2.54-4.57,14.07-1.41,23.28,0,33,6.61.65.44,1.3.89,1.93,1.36v0a58.42,58.42,0,0,1,10.27,19C667.87,226.47,675.67,252.39,660.89,270.45Z" transform="translate(1 1)"/><path class="cls-4" d="M656.23,278.26a116.53,116.53,0,0,1-9.57,39c-17.35,39.47-58.77,81.78-87.44,99.64a319.29,319.29,0,0,1-33.72,18.4c-8.54-2.11-37.48,11.82-50.67,7-10.19-3.71-81.86,29.79-101.67,18.3-10.32-6,20-50.88,28.47-81.34,3.09-11.13,0-24.4,1.61-49.82a158.11,158.11,0,0,0-18.53-42.87,171.86,171.86,0,0,0,19.07-28.12c16.51,25.46,39.61,58.3,78.17,71C534.86,346.81,604.24,322.06,656.23,278.26Z" transform="translate(1 1)"/><path class="cls-5" d="M408.05,376.9a143.1,143.1,0,0,1-7.44,37.58,148.53,148.53,0,0,1-23,42.58c-6.36.75-12.89,1.44-19.72,2.16-31.05,3.29-54.05,5.73-83.38,4.06-11.71-.67-21.88-1.83-31-3.25-25.19-3.91-41.93-9.76-59.21-12.38A114,114,0,0,0,173,446.47c-.93-.07-1.89-.11-2.84-.13h-.27c-.4,0-.79,0-1.18,0a117.08,117.08,0,0,0-26.31,2.73c-1.08.22-2.14.45-3.17.69-16.74-20.44-28.67-44.43-33.43-69.83-.86-4.51-7-40.14,6.79-77.84,1.1.85,2.22,1.73,3.37,2.6,11.37,8.67,32.05,24.18,63,34.57,0,0,31.32,9,64.63,10.05,2.17.08,4.37.12,6.54.12a175.08,175.08,0,0,0,134.58-63.2C401,312.32,410.1,344.18,408.05,376.9Z" transform="translate(1 1)"/><path class="cls-6" d="M667,412.79c-18.67,44.82-47.07,88.07-65.07,105.74-30.79,30.24-66.41,49.56-102.08,62-25.44-21.78-43.6-44.1-51.77-64.74,12.36-3.2,31.38-9.68,58.28-23.69,57.75-30,112.1-58.32,144.37-113.88,30.91-53.17,23.43-100.14,34.76-121.52C695.5,304.59,685,369.5,667,412.79Z" transform="translate(1 1)"/><path class="cls-4" d="M139.19,450.09c-35.81,8-41.69,17.89-45.63,27.77a58.16,58.16,0,0,0-3.87,16.7c-.71-1.47-1.46-2.95-2.23-4.5-11-21.92-38-75.7-18.3-136.24,3.57-11,13.31-41,33.08-60.13,3.19,2.87,6.59,5.76,10.31,8.73-13.75,37.7-7.65,73.32-6.79,77.84C110.52,405.65,122.45,429.65,139.19,450.09Z" transform="translate(1 1)"/><path class="cls-7" d="M524.65,420.93c31.24-10.87,48.78-9.75,56.94-2,17.31,16.36.75,73.69-30.51,111.84-49.37,60.26-130,66-230.79,73.21-22.28,1.59-101.06,6.12-171.83-26.44-21-9.64-42.12-23-52.87-46.77-2.24-5-11.34-29.59-2-52.87,4.06-10.16,10.16-20.33,48.8-28.47,47.68-10,64.46,10.38,132.17,14.24,29.33,1.67,52.33-.77,83.38-4.07,30.12-3.2,54.24-5.76,85.4-14.23C477.48,436,477.88,437.19,524.65,420.93Z" transform="translate(1 1)"/><path class="cls-8" d="M588.54,442.5a404.37,404.37,0,0,1-88.29,53.66c-27.78,12.31-167.82,70.48-305,14.24-27.31-11.21-48.34-24.4-65.17-35.12,8.21,1.2,16.65,3.82,26.53.55,12.61-4.19,23.51-16.61,27.76-27.84,23.53,3.56,46,13.12,90.18,15.64,29.33,1.67,52.33-.77,83.38-4.07,6.83-.71,13.36-1.4,19.72-2.15,2.14-.25,4.23-.49,6.32-.78-4.77,6.31-7.84,12.65-5.71,17.17,5.88,12.42,47.5,3.41,91.51-6.1,73-15.78,88.15-31.69,95.57-42.71A114.52,114.52,0,0,0,572,414a20.7,20.7,0,0,1,9.56,4.9C586.69,423.71,588.85,432.09,588.54,442.5Z" transform="translate(1 1)"/><path class="cls-9" d="M572,414a114.52,114.52,0,0,1-6.71,11c-7.42,11-22.61,26.93-95.57,42.71-44,9.51-85.63,18.52-91.51,6.1-2.13-4.52.94-10.86,5.71-17.17a403.65,403.65,0,0,0,59.36-11.3c34.16-9.3,34.57-8.14,81.34-24.4C546.83,413.22,562.13,411.55,572,414Z" transform="translate(1 1)"/><path class="cls-9" d="M184.35,448c-4.25,11.23-15.15,23.65-27.76,27.84-17.14,5.67-29.91-6.37-44.73,2-11.15,6.31-14.83,19.3-16.27,24.4-.24.84-.45,1.67-.63,2.51a61.71,61.71,0,0,0-.9,22.06,80.25,80.25,0,0,1-4.37-32.27,58.16,58.16,0,0,1,3.87-16.7c3.94-9.88,9.82-19.76,45.63-27.77,1-.25,2.09-.47,3.17-.7a117.61,117.61,0,0,1,26.31-2.72c.39,0,.78,0,1.18,0h.27c.95,0,1.91.06,2.84.12A114,114,0,0,1,184.35,448Z" transform="translate(1 1)"/><path id="eye" class="cls-10" d="M118,89.47c-6.1,8.14-12.2,18.3-10.65,26.42,1,5.31,14.42-1.44,23.19-11.27s13.15-21.45,8.56-24.32C134.23,77.27,126.59,78,118,89.47Z" transform="translate(1 1)"/><path class="cls-11" d="M89.49,83.37a150.39,150.39,0,0,0-25.87,39.37c-.18.45-.38.87-.57,1.3-6.38,14.74-7.15,23.49-14.23,44.74A364.87,364.87,0,0,1,35.4,203.22c-1,2.28-2,4.36-2.85,6.23l-1.18-.37c-4.35-6.83-8.74-14.17-13-22C6.4,165.52.38,150,0,132.17c-.33-15.8,3.94-26,6.1-30.5s5.92-12,14.23-18.3a40.23,40.23,0,0,1,18.3-8.13c9.05-1.36,11.53,1.93,32.54,6.1,9,1.79,14.4,2.34,18.16,2Z" transform="translate(1 1)"/><path class="cls-12" d="M425,174.88a174.49,174.49,0,0,1-5.65,44.23c-1,3.94-2.18,7.8-3.48,11.63v0C394.1,269.92,379.77,281.9,349.77,305c-30.3,23.36-63,30.28-83.37,34.57a242.7,242.7,0,0,1-68.22,4.49s-.06,0-.08,0c-11.61-2.32-19.14-4.47-19.14-4.47-31-10.39-51.67-25.91-63-34.57A220,220,0,0,1,93.7,285.58c-5.72-5.67-10.92-11.31-16.41-17.16a405,405,0,0,1-45.92-59.34l1.18.37a370.2,370.2,0,0,0,16.27-40.67c7.08-21.25,7.85-30,14.23-44.74A149.9,149.9,0,0,1,89.49,83.37l-.14,0a13.41,13.41,0,0,0,6.24-2,43,43,0,0,0,9.8-8.42c2.93-3.6,25.5-26.9,54.88-45.88a22.48,22.48,0,0,0,.39,13.63,51.3,51.3,0,0,0,4.21,8.76c6.51,10.64,16.25,15.74,32.19,17.19,11,1,25,.3,42.91-1.55A212.32,212.32,0,0,0,261,61.9c18.14,22.59,60,45.69,98.91,54,13.42,2.86,36.87,6.2,56.37,4.39A174.37,174.37,0,0,1,425,174.88Z" transform="translate(1 1)"/><path class="cls-3" d="M307.07,38.64C297,52,277.18,58.58,261,61.9A212.32,212.32,0,0,1,240,65.07c-17.92,1.85-31.89,2.58-42.91,1.55-15.94-1.45-25.68-6.55-32.19-17.19a51.3,51.3,0,0,1-4.21-8.76A22.48,22.48,0,0,1,160.27,27C172,19.46,184.82,12.57,197.89,7.91A185.36,185.36,0,0,1,250.13,0a174.45,174.45,0,0,1,49.94,7.24c2.08.61,4.11,1.26,6.15,1.95h0C314,16.86,316.59,26,307.07,38.64Z" transform="translate(1 1)"/><path class="cls-13" d="M217.6,207.41c-5.56.66-74.56,9.69-85.41,52.87A53.42,53.42,0,0,0,140.33,303c24.33,34.33,85.46,23.82,105.74,20.33,34.64-6,101.09-26.94,101.67-56.94C348.34,235.32,278.23,200.23,217.6,207.41Z" transform="translate(1 1)"/><path class="cls-14" d="M416.31,120.3c-19.5,1.81-42.95-1.53-56.37-4.39-38.88-8.32-80.77-31.42-98.91-54,16.15-3.32,36-9.9,46-23.26,9.52-12.69,7-21.78-.83-29.45A175.22,175.22,0,0,1,416.31,120.3Z" transform="translate(1 1)"/><path class="cls-15" d="M115.92,176.91C99,219.76,101.77,254,93.56,254.18c-9.89.27-20.58-49-22.37-91.5-1-24,1.88-40.83,8.16-54.66,2.05-4.53,7.19-14.71,26.41-34.82a358.12,358.12,0,0,1,54.9-46.77c-.2,1.6-2.13,19.59,11.6,31.62,10.08,8.83,22,8.68,24.8,8.57a4.89,4.89,0,0,1,.2.48C205.86,89.15,147.83,96,115.92,176.91Z" transform="translate(1 1)"/><path class="cls-16" d="M415.88,230.76a174.91,174.91,0,0,1-165.75,119c-19.19,0-38.35-2.94-51.95-5.67a242.7,242.7,0,0,0,68.22-4.49c20.34-4.29,53.07-11.21,83.37-34.57C379.77,281.9,394.1,269.92,415.88,230.76Z" transform="translate(1 1)"/><path class="cls-17" d="M85.42,264.35c-2,2-9.25-6.63-12.2-10.17-10.17-12.2-9.91-13.11-22.37-30.5-3.53-4.93-8.75-12-15.45-20.46a364.87,364.87,0,0,0,13.42-34.44c7.08-21.25,7.85-30,14.23-44.74.19-.43.39-.85.57-1.3-2.13,22.43-5.85,54.21-.57,86.71a111.7,111.7,0,0,0,12.21,36.6C85.1,264,85.42,260.28,85.42,264.35Z" transform="translate(1 1)"/><path class="cls-18" d="M74.24,88.46c-.83-2.35-6-3.6-16.27-6.1-3.67-.9-10.17-2-10.17-2s-9.2-1.56-16.26,2c-4.23,2.15-6.41,5.49-8.14,8.13-2.45,3.76-2.2,5.43-2,6.1.53,2.08,2.51,3.23,4.07,4.07,8.72,4.72,14.23,6.1,14.23,6.1,12.4,3.09,18.67,4.58,22.37,2,.53-.37.91-.7,5.08-7.12C74.39,90.5,74.6,89.48,74.24,88.46Z" transform="translate(1 1)"/><path class="cls-19" d="M62,88.46c0-.74-1.88-1.1-16.27-4.07-4.05-.84-7-1.45-10.17,0-1.93.88-4.4,2.74-4.06,4.07.22.88,1.59,1.19,12.2,2,5.84.46,10.57,2.65,14.23,2A5.58,5.58,0,0,0,62,88.46Z" transform="translate(1 1)"/><path id="eye-2" data-name="eye" class="cls-10" d="M118,89.47c-6.1,8.14-12.2,18.3-10.65,26.42,1,5.31,14.42-1.44,23.19-11.27s13.15-21.45,8.56-24.32C134.23,77.27,126.59,78,118,89.47Z" transform="translate(1 1)"/></svg>