<svg id="Layer_1" data-name="Layer 1" xmlns="http://www.w3.org/2000/svg" viewBox="0 0 691.67 900.36"><defs><style>.cls-1{fill:#fff;}.cls-2{fill:#eeecef;}.cls-3{fill:#dedcdd;}.cls-4{fill:#d6c15a;}.cls-5{fill:#cca82e;}.cls-6{fill:#c49423;}.cls-7{fill:#f7b62d;}.cls-8{fill:#1a1b1b;stroke:#000;stroke-miterlimit:10;stroke-width:0.75px;}.cls-9{fill:#daa936;}.cls-10{fill:#dfba3f;}.cls-11{fill:#c1572e;}.cls-12{fill:#d3aa32;}.cls-13{fill:#dab24f;}.cls-14{fill:#d9917d;}.cls-15{fill:#f4c0bc;}.cls-16{fill:#2ca6e0;}</style></defs><path class="cls-1" d="M283.83,900.36,0,614.52V56.25A56.26,56.26,0,0,1,56.25,0H635.41a56.27,56.27,0,0,1,56.26,56.25V844.11a56.27,56.27,0,0,1-56.26,56.25Z"/><path class="cls-2" d="M0,614.52l233.61-1.69a56.19,56.19,0,0,1,50.22,55.85V898.27Z"/><rect class="cls-3" x="88.5" y="86.02" width="514.66" height="15.72"/><rect class="cls-3" x="88.5" y="137.38" width="514.66" height="15.72"/><rect class="cls-3" x="88.5" y="188.74" width="514.66" height="15.72"/><rect class="cls-3" x="88.5" y="240.1" width="514.66" height="15.72"/><rect class="cls-3" x="88.5" y="291.46" width="514.66" height="15.72"/><rect class="cls-3" x="88.5" y="342.82" width="514.66" height="15.72"/><rect class="cls-3" x="88.5" y="394.18" width="514.66" height="15.72"/><rect class="cls-3" x="88.5" y="445.54" width="514.66" height="15.72"/><rect class="cls-3" x="88.5" y="496.91" width="514.66" height="15.72"/><rect class="cls-3" x="88.5" y="548.27" width="514.66" height="15.72"/><rect class="cls-3" x="88.5" y="599.63" width="514.66" height="15.72"/><path class="cls-3" d="M603.16,666.71H283.83a58.37,58.37,0,0,0-2.7-15.29l322-.43Z"/><rect class="cls-3" x="283.83" y="702.35" width="319.33" height="15.72"/><rect class="cls-3" x="283.07" y="753.71" width="320.09" height="15.72"/><path class="cls-4" d="M251.13,476.4c0-.39,0-.82.08-1.24v0A11.89,11.89,0,0,0,251.13,476.4Z"/><path class="cls-4" d="M252.88,488.28a2.07,2.07,0,0,0,.16.43v0A2.1,2.1,0,0,1,252.88,488.28Z"/><path class="cls-5" d="M255,464.29a12,12,0,0,0-1.48,2.29A11.13,11.13,0,0,1,255,464.29Z"/><path class="cls-6" d="M251.13,476.4c0-.39,0-.82.08-1.24v0A11.89,11.89,0,0,0,251.13,476.4Z"/><path class="cls-6" d="M325.55,461.92c-.23,0-.46,0-.7-.08H325c.27,0,.5,0,.78.08Z"/><path class="cls-7" d="M502.34,374.92a.13.13,0,0,0,0-.11c-.12-.59-.23-1.13-.39-1.67a3.31,3.31,0,0,0-.15-.62.71.71,0,0,0,0-.27,2.55,2.55,0,0,1-.08-.28c-.12-.42-.23-.89-.39-1.32a9.54,9.54,0,0,0-.31-1c-.15-.55-.35-1.13-.54-1.67a12.07,12.07,0,0,0-.51-1.32c-.07-.2-.11-.39-.19-.59-.19-.42-.39-.89-.58-1.32s-.39-.85-.59-1.24-.23-.5-.34-.74c-.28-.5-.55-1-.82-1.43a9,9,0,0,0-.54-1s-.08-.08-.08-.12c-.19-.31-.39-.58-.58-.89s-.47-.66-.7-1c-.08-.12-.16-.2-.23-.31-.2-.28-.39-.51-.59-.78a24.82,24.82,0,0,0-2.6-2.72c-.23-.23-.5-.46-.74-.66s-.46-.35-.66-.54a3.12,3.12,0,0,1-.38-.27l0,0-.82-.58a17,17,0,0,0-2.79-1.56,3.52,3.52,0,0,0-.51-.19c-.5-.19-1.05-.39-1.59-.54h-.08c-.54-.16-1.08-.28-1.63-.39a11.39,11.39,0,0,0-1.78-.23c-.59,0-1.21-.08-1.87-.08-1.12,0-2.36.08-3.68.19-8.66.86-21.63,4.19-46.08,7.11-18.95,2.21-22.95,1.55-39.25,2.32a71.87,71.87,0,0,0,2.41-18.63,73.76,73.76,0,0,0-50.08-69.84c-.86-.31-1.71-.58-2.6-.81a74,74,0,0,0-21-3.07,78,78,0,0,0-22,3.34,73.67,73.67,0,0,0-15.72,8,.34.34,0,0,0-.15.07c-.78.51-1.56,1-2.29,1.52a14.14,14.14,0,0,0-1.32.93,123.91,123.91,0,0,0-19.53,16.89A17.68,17.68,0,0,1,253.7,301a5.47,5.47,0,0,1-2.57.85q-2.15,2.4-3.84,4.66a.87.87,0,0,1-.16.2c-.93,1.32-1.82,2.56-2.6,3.76-1.12,1.75-2.05,3.42-2.83,4.93-.35.66-.66,1.28-.93,1.9-.2.39-.39.78-.55,1.17v0c-.07.19-.15.31-.23.5-2.72,6.21-3,9.9-6,18.87a145.42,145.42,0,0,1-5.66,14.52c-.43,1-.82,1.82-1.21,2.6l-.46-.16a170.19,170.19,0,0,0,19.33,25c2.33,2.45,4.5,4.82,6.91,7.22-9.28,7.92-26.71,27.1-26.63,53.61.12,28.65,20.77,47.83,27.45,54a82.87,82.87,0,0,0,8.54,7s.11.08.15.12c24.57,17.7,54.08,20,80.28,19.8h.51c5.2,0,10.21-.2,15.1-.32,15.76-.42,40.8-1.12,65.8-9.86,0,0,0,0,.08,0,1.24-.43,2.48-.9,3.72-1.36s2.53-1,3.77-1.52,2.44-1.05,3.69-1.59c2.48-1.12,5-2.37,7.41-3.73,1.2-.62,2.41-1.32,3.61-2A110.32,110.32,0,0,0,459.6,492l2.06-1.71c.38-.31.73-.62,1.08-.93.66-.59,1.28-1.17,1.9-1.75.86-.74,1.67-1.55,2.49-2.33,4.08-4,9.39-11.06,14.67-19.72.51-.78,1-1.59,1.44-2.41,2.64-4.46,5.24-9.28,7.61-14.21.31-.66.66-1.35,1-2.05,1-2.06,1.86-4.12,2.72-6.18C502.15,422.48,506.57,395.11,502.34,374.92Z"/><path id="eye" class="cls-8" d="M263.12,304.37c-2.58,3.43-5.15,7.72-4.49,11.13.43,2.25,6.08-.6,9.77-4.74s5.55-9,3.61-10.26S266.75,299.52,263.12,304.37Z"/><path class="cls-9" d="M325,461.84c.19,0,.39,0,.58.08-.23,0-.46,0-.7-.08Z"/><path class="cls-10" d="M252.88,488.28a2.07,2.07,0,0,0,.16.43v0A2.1,2.1,0,0,1,252.88,488.28Z"/><path class="cls-11" d="M251.13,301.86q-2.15,2.4-3.84,4.66a.87.87,0,0,1-.16.2c-.93,1.32-1.82,2.56-2.6,3.76-1.12,1.75-2.05,3.42-2.83,4.93-.35.66-.66,1.28-.93,1.9-.2.39-.39.78-.55,1.17v0c-.07.19-.15.31-.23.5-2.72,6.21-3,9.9-6,18.87a145.42,145.42,0,0,1-5.66,14.52c-.43,1-.82,1.82-1.21,2.6l-.46-.16c-1.87-2.87-3.69-6-5.51-9.27-5-9.09-7.57-15.61-7.73-23.14A28.33,28.33,0,0,1,216,309.59a20.49,20.49,0,0,1,6-7.73,17.18,17.18,0,0,1,7.72-3.41c3.81-.58,4.86.81,13.71,2.56a27.16,27.16,0,0,0,7.65.85Z"/><path class="cls-12" d="M285.57,290.76a6.9,6.9,0,0,0,1.05.89,3.15,3.15,0,0,1-.63-.46A2.14,2.14,0,0,1,285.57,290.76Z"/><path class="cls-13" d="M281.1,277.87v.2a.34.34,0,0,0-.15.07c-.78.51-1.56,1-2.29,1.52C279.47,279,280.29,278.46,281.1,277.87Z"/><path class="cls-14" d="M244.69,304c-.35-1-2.52-1.51-6.85-2.57-1.55-.37-4.29-.86-4.29-.86a12.75,12.75,0,0,0-6.86.86,9,9,0,0,0-3.43,3.43c-1,1.58-.92,2.29-.85,2.57a3,3,0,0,0,1.71,1.72,28.9,28.9,0,0,0,6,2.57c5.23,1.3,7.87,1.93,9.43.85.22-.15.38-.29,2.14-3C244.76,304.89,244.85,304.45,244.69,304Z"/><path class="cls-15" d="M239.55,304c0-.31-.79-.46-6.86-1.71-1.7-.35-2.95-.61-4.28,0-.82.37-1.86,1.16-1.72,1.71.1.37.68.51,5.15.86,2.46.2,4.45,1.12,6,.86A2.35,2.35,0,0,0,239.55,304Z"/><path class="cls-16" d="M427.91,797.92c3.5,19.05-4.48,37.46-11.68,54.65-2.07,5-4.11,9.94-5.89,15-.29.85,2.58.49,2.89-.41,6.28-18,16.2-35,18.12-54.27a56.31,56.31,0,0,0-.55-15.77c-.16-.87-3.07-.19-2.89.78Z"/><path class="cls-16" d="M428.29,799.36a326.44,326.44,0,0,0,17.11,54.2q3.11,7.47,6.57,14.77c.57,1.2,3.43.34,2.89-.78a325.91,325.91,0,0,1-19.78-53.28q-2.15-7.78-3.89-15.68c-.28-1.27-3.18-.52-2.9.77Z"/><path class="cls-16" d="M429.19,838.41a36.13,36.13,0,0,0,15.86-2.6c.26-.11,1.19-.43.86-.84s-1.57,0-1.87.16a29.34,29.34,0,0,1-13,2.09,3.44,3.44,0,0,0-2.05.54c-.44.31-.4.61.17.65Z"/><path class="cls-16" d="M481.67,800.3q-3,25.63-8.31,50.93c-1,4.77-2.06,9.52-3.17,14.26-.28,1.16,2.65.74,2.9-.32q5.93-25.12,9.6-50.71,1-7.23,1.88-14.48c.15-1.24-2.78-.75-2.9.32Z"/><path class="cls-16" d="M487.34,803.56c2.45-.62,5.2,1.06,6.87,2.72a19.64,19.64,0,0,1,4.09,7,66.78,66.78,0,0,1,4.33,15.93,27.14,27.14,0,0,1-2.26,15.67A27.63,27.63,0,0,1,491.06,855a77.51,77.51,0,0,1-14.42,7.31c-.3.13-1.15.41-.86.85s1.61,0,1.87-.15c9.19-3.8,19.44-8.26,24.79-17.16,6.27-10.43,2.72-23.81-1.63-34.28-1.18-2.84-2.77-5.7-5.36-7.5a10,10,0,0,0-8.36-1.42c-.28.07-1.45.4-1.33.86s1.35.14,1.58.08Z"/><path class="cls-16" d="M539.46,797.92C543,817,535,835.38,527.79,852.57c-2.08,5-4.12,9.94-5.89,15-.3.85,2.57.49,2.89-.41,6.28-18,16.19-35,18.11-54.27a55.94,55.94,0,0,0-.54-15.77c-.16-.87-3.07-.19-2.9.78Z"/><path class="cls-16" d="M539.85,799.36A326.44,326.44,0,0,0,557,853.56c2.06,5,4.26,9.9,6.56,14.77.57,1.2,3.43.34,2.9-.78a325.91,325.91,0,0,1-19.78-53.28q-2.14-7.78-3.89-15.68c-.28-1.27-3.19-.52-2.9.77Z"/><path class="cls-16" d="M540.75,838.41a36.15,36.15,0,0,0,15.86-2.6c.25-.11,1.19-.43.86-.84s-1.57,0-1.87.16a29.34,29.34,0,0,1-13,2.09,3.44,3.44,0,0,0-2,.54c-.45.31-.41.61.17.65Z"/></svg>