<svg id="Layer_1" data-name="Layer 1" xmlns="http://www.w3.org/2000/svg" viewBox="0 0 1009.47 322.26"><defs><style>.cls-1{fill:#d6c15a;}.cls-2{fill:#c99a2a;}.cls-3{fill:#d7bf6e;}.cls-4{fill:#cca82e;}.cls-5{fill:#cb9a14;}.cls-6{fill:#d3aa27;}.cls-7{fill:#c49423;}.cls-8{fill:#daa936;}.cls-9{fill:#dfba3f;}.cls-10{fill:#1a1b1b;stroke:#000;stroke-width:0.75px;}.cls-10,.cls-21,.cls-23{stroke-miterlimit:10;}.cls-11{fill:#c1572e;}.cls-12{fill:#d3aa32;}.cls-13{fill:#c99823;}.cls-14{fill:#d3b229;}.cls-15{fill:#dab24f;}.cls-16{fill:#caa42f;}.cls-17{fill:#cc9a41;}.cls-18{fill:#d9917d;}.cls-19{fill:#f4c0bc;}.cls-20{fill:#3e3a39;}.cls-21,.cls-23{fill:#eeeeef;}.cls-21{stroke:#888;}.cls-22{fill:#c8c9ca;opacity:0.5;}.cls-23{stroke:#717171;}</style></defs><path class="cls-1" d="M350.88,195.92c-1.19,2.88-2.53,5.72-3.94,8.48-5,9.8-11,18.39-15.07,22.41-24,23.52-57.95,24.47-75.45,25-3.47.09-7.1.19-10.81.22-18.15.14-38.6-1.45-55.64-13.72a60.58,60.58,0,0,1-6-4.92c-4.64-4.3-18.95-17.57-19-37.43-.06-18.4,12-31.67,18.45-37.16.79.78,1.62,1.57,2.5,2.37-5.77,5.58-8.62,14.34-9.67,17.56-5.75,17.69,2.14,33.4,5.35,39.81.23.45.45.88.65,1.31a17.31,17.31,0,0,1,1.13-4.88c1.16-2.88,2.87-5.77,13.33-8.11l.93-.2a33.84,33.84,0,0,1,7.69-.8h.42c.28,0,.56,0,.83,0a32.92,32.92,0,0,1,3.33.35c5.05.76,9.94,2.47,17.3,3.61a88.7,88.7,0,0,0,9,1c8.56.49,15.28-.22,24.35-1.18,2-.21,3.91-.41,5.76-.63a43.51,43.51,0,0,0,6.72-12.44,41.51,41.51,0,0,0,2.17-11c8.82,7.76,21.12,13.64,34.32,17a95,95,0,0,0,9.85-5.38c8.37-5.21,20.47-17.58,25.54-29.11a34,34,0,0,0,2.8-11.38c-15.19,12.8-35.46,20-50.92,14.95-11.26-3.71-18-13.31-22.84-20.74a50.69,50.69,0,0,0,4.55-11.49c11.29-.54,14.06-.09,27.2-1.64,25.48-3,33-6.76,39.32-4.19l.32.14.29.13c.14.07.28.13.41.21l.24.13.4.23.61.38.51.37c.12.08.23.17.34.26s.31.24.46.36.36.3.53.46a19,19,0,0,1,1.79,1.9l.42.53.15.2q.24.33.48.69c.14.2.27.4.4.61l.06.08.39.66c.19.33.37.67.54,1,.09.17.18.34.26.51s.27.57.4.86.27.61.4.93c.05.12.1.25.14.38.12.3.24.61.35.92s.27.77.38,1.17c.08.23.15.47.22.72s.18.61.25.92a2.66,2.66,0,0,1,.1.38c0,.13.08.27.11.41.09.39.18.77.26,1.17l0,.09C359.21,164.31,356.15,183.28,350.88,195.92Z"/><path class="cls-2" d="M356.28,150.32c-3.31,6.25-1.12,20-10.15,35.5-4.74,8.16-11.1,14.3-18.41,19.51s-15.38,9.4-23.77,13.76a81.18,81.18,0,0,1-17,6.92c-1.76-4.44-1.93-8.62-.2-12.26,3.08-6.49,9.38-5,22.83-11.26a95,95,0,0,0,9.85-5.38c8.37-5.21,20.47-17.58,25.54-29.11a34,34,0,0,0,2.8-11.38c.71-9.51-2.31-17.76-2.69-23.11l.32.14.29.13c.14.07.28.13.41.21l.24.13.4.23.61.38.51.37c.12.08.23.17.34.26s.31.24.46.36.36.3.53.46a19,19,0,0,1,1.79,1.9l.42.53.15.2q.24.33.48.69c.14.2.27.4.4.61l.06.08.39.66c.19.33.37.67.54,1,.09.17.18.34.26.51s.27.57.4.86.27.61.4.93c.05.12.1.25.14.38.12.3.24.61.35.92s.27.77.38,1.17c.08.23.15.47.22.72s.18.61.25.92a2.66,2.66,0,0,1,.1.38c0,.13.08.27.11.41.09.39.18.77.26,1.17Z"/><path class="cls-3" d="M349.1,154.34c-3.05,3.72-8.33,5-8.91,4.16s2.93-2.18,4.16-5.94c1.5-4.6-1.23-9.75-5.94-18.42l-.75-1.34c4.11-.41,6.8,0,9.66,1.93l.56.4h0a17,17,0,0,1,3,5.53C351.14,141.49,353.42,149.06,349.1,154.34Z"/><path class="cls-4" d="M347.74,156.62a34,34,0,0,1-2.8,11.38c-5.07,11.53-17.17,23.9-25.54,29.11a95,95,0,0,1-9.85,5.38c-2.5-.62-11,3.45-14.81,2-3-1.09-23.92,8.7-29.7,5.34-3-1.74,5.84-14.86,8.31-23.76.91-3.25,0-7.13.48-14.55A46.13,46.13,0,0,0,268.41,159a49.4,49.4,0,0,0,5.57-8.21c4.83,7.43,11.58,17,22.84,20.74C312.28,176.65,332.55,169.42,347.74,156.62Z"/><path class="cls-5" d="M275.23,185.44a41.51,41.51,0,0,1-2.17,11,43.51,43.51,0,0,1-6.72,12.44c-1.85.22-3.76.42-5.76.63-9.07,1-15.79,1.67-24.35,1.18a88.7,88.7,0,0,1-9-.95c-7.36-1.14-12.25-2.85-17.3-3.61a32.92,32.92,0,0,0-3.33-.35c-.27,0-.55,0-.83,0h-.42a33.84,33.84,0,0,0-7.69.8l-.93.2a45.77,45.77,0,0,1-9.76-20.4,46.29,46.29,0,0,1,2-22.74l1,.76a61.87,61.87,0,0,0,18.41,10.1,88.15,88.15,0,0,0,18.88,2.93c.64,0,1.28,0,1.92,0a50.86,50.86,0,0,0,33.13-12.21,50.07,50.07,0,0,0,6.18-6.26A45.13,45.13,0,0,1,275.23,185.44Z"/><path class="cls-6" d="M350.88,195.92c-5.45,13.1-13.75,25.73-19,30.89a79.15,79.15,0,0,1-29.82,18.12c-7.43-6.36-12.74-12.89-15.13-18.92a81.18,81.18,0,0,0,17-6.92c16.87-8.77,32.75-17,42.18-33.27,9-15.53,6.84-29.25,10.15-35.5C359.21,164.31,356.15,183.28,350.88,195.92Z"/><path class="cls-4" d="M196.68,206.82c-10.46,2.34-12.17,5.23-13.33,8.11a17.31,17.31,0,0,0-1.13,4.88c-.2-.43-.42-.86-.65-1.31-3.21-6.41-11.1-22.12-5.35-39.81,1.05-3.22,3.9-12,9.67-17.56.93.84,1.92,1.68,3,2.55a46.29,46.29,0,0,0-2,22.74A45.77,45.77,0,0,0,196.68,206.82Z"/><path class="cls-7" d="M309.3,198.3c9.12-3.17,14.25-2.85,16.63-.59,5.06,4.77.22,21.52-8.91,32.67-14.43,17.6-38,19.29-67.43,21.39-6.51.46-29.52,1.79-50.2-7.73-6.12-2.82-12.3-6.7-15.44-13.66-.66-1.45-3.32-8.65-.6-15.45,1.19-3,3-5.94,14.26-8.31,13.93-2.94,18.83,3,38.62,4.15,8.56.49,15.28-.22,24.35-1.18,8.8-.94,15.85-1.69,24.95-4.16C295.52,202.71,295.63,203.05,309.3,198.3Z"/><path class="cls-8" d="M328,204.6a118.49,118.49,0,0,1-25.79,15.68c-8.12,3.59-49,20.59-89.11,4.16a116.56,116.56,0,0,1-19-10.26c2.4.35,4.86,1.12,7.75.16,3.68-1.22,6.87-4.85,8.11-8.13,6.87,1,13.45,3.83,26.35,4.56,8.56.49,15.28-.22,24.35-1.18,2-.21,3.91-.41,5.76-.63l1.85-.23c-1.39,1.84-2.29,3.7-1.67,5,1.72,3.62,13.88,1,26.74-1.79,21.31-4.61,25.75-9.25,27.92-12.47a35.32,35.32,0,0,0,2-3.22,6,6,0,0,1,2.79,1.44C327.42,199.11,328.05,201.56,328,204.6Z"/><path class="cls-9" d="M323.14,196.27a35.32,35.32,0,0,1-2,3.22c-2.17,3.22-6.61,7.86-27.92,12.47-12.86,2.78-25,5.41-26.74,1.79-.62-1.32.28-3.18,1.67-5a117.89,117.89,0,0,0,17.34-3.3c10-2.72,10.1-2.38,23.77-7.13C315.78,196.05,320.24,195.56,323.14,196.27Z"/><path class="cls-9" d="M209.88,206.21c-1.24,3.28-4.43,6.91-8.11,8.13-5,1.66-8.74-1.86-13.07.59-3.26,1.84-4.33,5.64-4.75,7.13-.07.25-.13.49-.19.73a18.23,18.23,0,0,0-.26,6.45,23.67,23.67,0,0,1-1.28-9.43,17.31,17.31,0,0,1,1.13-4.88c1.16-2.88,2.87-5.77,13.33-8.11l.93-.2a33.84,33.84,0,0,1,7.69-.8h.42c.28,0,.56,0,.83,0A32.92,32.92,0,0,1,209.88,206.21Z"/><path id="eye" class="cls-10" d="M190.48,101.47c-1.78,2.37-3.56,5.34-3.11,7.71.3,1.56,4.21-.42,6.78-3.29s3.84-6.26,2.5-7.1S193,98.11,190.48,101.47Z"/><path class="cls-11" d="M182.16,99.68a44.27,44.27,0,0,0-7.55,11.5c-.06.14-.11.26-.17.38-1.86,4.31-2.09,6.87-4.16,13.07a106.13,106.13,0,0,1-3.92,10.07c-.29.66-.57,1.27-.83,1.82l-.34-.11c-1.28-2-2.56-4.14-3.82-6.43-3.48-6.3-5.24-10.83-5.34-16a19.14,19.14,0,0,1,1.78-8.91A13.82,13.82,0,0,1,162,99.68a11.74,11.74,0,0,1,5.34-2.37c2.65-.4,3.37.56,9.51,1.78a20.07,20.07,0,0,0,5.3.58Z"/><path class="cls-12" d="M280.19,126.42a50.56,50.56,0,0,1-1.66,12.92c-.29,1.15-.63,2.28-1,3.4h0c-6.36,11.44-10.55,14.94-19.31,21.7s-18.42,8.84-24.36,10.1a71,71,0,0,1-19.93,1.31h0c-3.39-.67-5.59-1.3-5.59-1.3a61.87,61.87,0,0,1-18.41-10.1,65.48,65.48,0,0,1-6.5-5.68c-1.66-1.66-3.19-3.31-4.79-5a118.2,118.2,0,0,1-13.41-17.33l.34.11a106.19,106.19,0,0,0,4.75-11.89c2.07-6.2,2.3-8.76,4.16-13.07a44.06,44.06,0,0,1,7.72-11.88h0a3.92,3.92,0,0,0,1.83-.58,12.67,12.67,0,0,0,2.86-2.46,87.29,87.29,0,0,1,16-13.4,6.59,6.59,0,0,0,.12,4,14.84,14.84,0,0,0,1.23,2.56c1.9,3.11,4.74,4.6,9.4,5a67.55,67.55,0,0,0,12.54-.45c1.28-.14,3.55-.39,6.15-.93,5.3,6.6,17.54,13.35,28.9,15.78a60.39,60.39,0,0,0,16.46,1.28A50.7,50.7,0,0,1,280.19,126.42Z"/><path class="cls-3" d="M245.73,86.61c-2.93,3.91-8.73,5.83-13.45,6.8-2.6.54-4.87.79-6.15.93a67.55,67.55,0,0,1-12.54.45c-4.66-.42-7.5-1.91-9.4-5A14.84,14.84,0,0,1,203,87.21a6.59,6.59,0,0,1-.12-4,53.9,53.9,0,0,1,11-5.59,54.19,54.19,0,0,1,15.27-2.31,51,51,0,0,1,14.59,2.11c.6.18,1.2.37,1.79.57h0C247.77,80.25,248.51,82.91,245.73,86.61Z"/><path class="cls-13" d="M219.59,135.92c-1.62.19-21.78,2.83-25,15.45A15.59,15.59,0,0,0,197,163.84c7.11,10,25,7,30.89,5.94,10.12-1.74,29.53-7.87,29.7-16.63C257.79,144.08,237.31,133.82,219.59,135.92Z"/><path class="cls-14" d="M277.64,110.47a60.39,60.39,0,0,1-16.46-1.28c-11.36-2.43-23.6-9.18-28.9-15.78,4.72-1,10.52-2.89,13.45-6.8,2.78-3.7,2-6.36-.24-8.6A51.18,51.18,0,0,1,277.64,110.47Z"/><path class="cls-15" d="M189.89,127c-4.94,12.52-4.14,22.51-6.54,22.58-2.88.07-6-14.33-6.53-26.74-.3-7,.55-11.93,2.38-16,.6-1.32,2.1-4.29,7.72-10.17a103.9,103.9,0,0,1,16-13.66c-.06.47-.62,5.72,3.39,9.24a10.54,10.54,0,0,0,7.24,2.5l.06.14C216.16,101.37,199.21,103.37,189.89,127Z"/><path class="cls-16" d="M277.52,142.74a51.11,51.11,0,0,1-48.42,34.77,79.57,79.57,0,0,1-15.18-1.66,71,71,0,0,0,19.93-1.31c5.94-1.26,15.5-3.28,24.36-10.1S271.16,154.18,277.52,142.74Z"/><path class="cls-17" d="M181,152.56c-.6.59-2.71-1.94-3.57-3-3-3.57-2.89-3.84-6.53-8.92-1-1.44-2.56-3.51-4.52-6a106.13,106.13,0,0,0,3.92-10.07c2.07-6.2,2.3-8.76,4.16-13.07.06-.12.11-.24.17-.38-.63,6.56-1.71,15.84-.17,25.34A32.69,32.69,0,0,0,178,147.21C180.88,152.45,181,151.37,181,152.56Z"/><path class="cls-18" d="M177.71,101.17c-.24-.69-1.75-1-4.75-1.78-1.08-.26-3-.6-3-.6a8.84,8.84,0,0,0-4.76.6,6.09,6.09,0,0,0-2.37,2.37c-.72,1.1-.65,1.59-.6,1.78a2.11,2.11,0,0,0,1.19,1.19,20.38,20.38,0,0,0,4.16,1.79c3.62.9,5.45,1.33,6.53.59.16-.11.27-.21,1.49-2.08C177.75,101.77,177.81,101.47,177.71,101.17Z"/><path class="cls-19" d="M174.14,101.17c0-.22-.54-.32-4.75-1.19a4.56,4.56,0,0,0-3,0c-.56.26-1.28.8-1.19,1.19s.47.35,3.57.59c1.71.14,3.09.78,4.16.6A1.62,1.62,0,0,0,174.14,101.17Z"/><path id="eye-2" data-name="eye" class="cls-10" d="M190.48,101.47c-1.78,2.37-3.56,5.34-3.11,7.71.3,1.56,4.21-.42,6.78-3.29s3.84-6.26,2.5-7.1S193,98.11,190.48,101.47Z"/><path class="cls-20" d="M1008.52,43.79a21.26,21.26,0,0,0-6.53-14.2,20.64,20.64,0,0,0-9.73-4.94l-15.47-2.71C955,17.74,926.42,12.7,892.64,8.08c-24.08-3.3-39-5.33-59.79-6.7a613.37,613.37,0,0,0-88,.47C713.09,4.39,691.46,8.69,655,16c-15.25,3-28.5,6-44.71,11.7a283.7,283.7,0,0,0-36.12,15.55c-22.56-.47-46.81-.91-69.39-1.37v0l-69.42,1.34a288,288,0,0,0-36.1-15.55C383,22,369.78,19,354.53,15.93,318,8.67,296.41,4.37,264.61,1.82a612.73,612.73,0,0,0-88-.48C155.82,2.7,140.93,4.76,116.86,8c-33.78,4.62-62.38,9.66-84.18,13.89L17.23,24.63A20.07,20.07,0,0,0,7.5,29.57,21.06,21.06,0,0,0,1,43.74Q.47,62.15,0,80.58a33.57,33.57,0,0,0,4.64,12.9,23.38,23.38,0,0,0,4.94,6.06c1.49,1.3,7.31,6.28,14.18,5.09a18,18,0,0,0,7.18-3.33A25.34,25.34,0,0,0,36,96.66h2.56c3.94,7.36,10.2,19.36,17,34.61C62.45,146.37,64,151.68,80,192.79c8,20.55,13,33,21,49.25,7.08,14.32,11.12,20.6,14.2,25,5.42,7.82,14,20.11,28.2,30.45,13.86,10.05,26.47,13.42,42.56,17.7a212.24,212.24,0,0,0,53.08,7H295.7a167.07,167.07,0,0,0,31.09-3.2c11.61-2.3,26.35-5.23,41.77-14.66,13.69-8.39,21.38-17.9,30.75-29.48C406.52,266,413,254.65,426.09,232c5.65-9.77,14.89-26.25,22-42.87,2.52-5.84,4.3-10.36,4.3-10.36,4.21-10.58,5.31-14.74,9.1-24.08,1.1-2.71,2.81-6.82,5.1-11.78.1-3.3.2-6.6.32-9.9-2.34-3.39-4.69-6.79-7-10.19-.39-.59-.76-1.17-1.13-1.76.15-5.08.32-10.19.49-15.3A30.34,30.34,0,0,1,468,97.47,30.72,30.72,0,0,1,485.07,93c6.6-.14,13.18-.32,19.78-.46l-.2,0,19.77.49a30.63,30.63,0,0,1,17.06,4.45,30,30,0,0,1,8.75,8.31c.17,5.08.32,10.19.49,15.3-.36.59-.76,1.17-1.12,1.74-2.35,3.42-4.67,6.81-7,10.21.13,3.3.22,6.58.32,9.88,2.3,5,4,9.06,5.11,11.8,3.79,9.34,4.86,13.49,9.09,24.08,0,0,1.79,4.49,4.3,10.34,7.12,16.62,16.36,33.11,22,42.89,13.05,22.63,19.58,34,26.77,42.87,9.38,11.61,17.06,21.12,30.77,29.5,15.42,9.41,30.13,12.35,41.77,14.67a169.31,169.31,0,0,0,31.09,3.18h56.58a210.06,210.06,0,0,0,53.06-7c16.11-4.28,28.72-7.62,42.58-17.69,14.23-10.32,22.78-22.64,28.21-30.43,3.08-4.45,7.11-10.73,14.2-25,8-16.23,13-28.7,21-49.28,16.06-41.11,17.6-46.39,24.39-61.52S966.94,104,970.9,96.71h2.54a25.8,25.8,0,0,0,5.11,4.62,18.35,18.35,0,0,0,7.19,3.35c6.87,1.19,12.68-3.82,14.17-5.11a23.47,23.47,0,0,0,4.94-6.06,32.9,32.9,0,0,0,4.62-12.91Q1009,62.2,1008.52,43.79Zm-580,107.79a372.6,372.6,0,0,1-25.1,75.23c-15.4,33.56-26.89,45-32.75,50.23a112.19,112.19,0,0,1-36.59,21.75c-10.44,3.69-19.77,4.67-38,6.45A369.77,369.77,0,0,1,238,306.93a370,370,0,0,1-46.86-5.5c-17.37-3.59-41.23-12-59-32.53-11.61-13.35-16.27-28-25.59-57.39-4.64-14.62-11.7-37.35-13.86-68.39a265.83,265.83,0,0,1,1-47.56c.88-7.29,4.1-25.4,18.65-41.14,12-13,25.93-18.13,31.7-20.19,7-2.49,20.5-4.84,25.05-5.4,16.52-2.61,26.25-4.25,42.48-4,26.4-1,50.84.48,76.26.7a501.54,501.54,0,0,1,54,9.34c19.43,4.47,33.19,8.9,47.34,15.79,12.08,5.87,18.87,10.85,24.64,17.21a67.37,67.37,0,0,1,12.66,20.55c4.52,11.56,4.52,21.12,4.55,34.44A174.08,174.08,0,0,1,428.56,151.58Zm488.3-8.46c-2.15,31-9.21,53.77-13.86,68.39-9.33,29.38-14,44-25.59,57.39-17.84,20.53-41.67,28.94-59,32.53a369.81,369.81,0,0,1-46.88,5.5,369.6,369.6,0,0,1-58.1-1.69c-18.26-1.78-27.59-2.76-38-6.45A111.89,111.89,0,0,1,638.79,277c-5.87-5.26-17.36-16.67-32.76-50.23a371.34,371.34,0,0,1-25.1-75.23,175,175,0,0,1-2.39-28.77c0-13.32,0-22.88,4.54-34.44a67.57,67.57,0,0,1,12.66-20.55c5.75-6.36,12.54-11.34,24.64-17.21,14.13-6.89,27.89-11.32,47.35-15.79a500.2,500.2,0,0,1,54-9.34c25.42-.22,49.83-1.66,76.25-.7,16.23-.2,26,1.44,42.48,4,4.55.56,18,2.91,25.06,5.4,5.77,2.06,19.7,7.19,31.7,20.19C911.78,70.16,915,88.27,915.91,95.56A265,265,0,0,1,916.86,143.12Z"/><ellipse class="cls-21" cx="51.34" cy="60.64" rx="25.35" ry="7.65"/><path class="cls-22" d="M431,122.81a174.08,174.08,0,0,1-2.4,28.77,372.6,372.6,0,0,1-25.1,75.23c-15.4,33.56-26.89,45-32.75,50.23a112.19,112.19,0,0,1-36.59,21.75c-10.44,3.69-19.77,4.67-38,6.45A369.77,369.77,0,0,1,238,306.93a370,370,0,0,1-46.86-5.5c-17.37-3.59-41.23-12-59-32.53-11.61-13.35-16.27-28-25.59-57.39-4.64-14.62-11.7-37.35-13.86-68.39a265.83,265.83,0,0,1,1-47.56c.88-7.29,4.1-25.4,18.65-41.14,12-13,25.93-18.13,31.7-20.19,7-2.49,20.5-4.84,25.05-5.4,16.52-2.61,26.25-4.25,42.48-4,26.4-1,50.84.48,76.26.7a501.54,501.54,0,0,1,54,9.34c19.43,4.47,33.19,8.9,47.34,15.79,12.08,5.87,18.87,10.85,24.64,17.21a67.37,67.37,0,0,1,12.66,20.55C430.93,99.93,430.93,109.49,431,122.81Z"/><ellipse class="cls-23" cx="958.15" cy="60.64" rx="25.35" ry="7.65"/><path class="cls-22" d="M916.86,143.12c-2.15,31-9.21,53.77-13.86,68.39-9.33,29.38-14,44-25.59,57.39-17.84,20.53-41.67,28.94-59,32.53a369.81,369.81,0,0,1-46.88,5.5,369.6,369.6,0,0,1-58.1-1.69c-18.26-1.78-27.59-2.76-38-6.45A111.89,111.89,0,0,1,638.79,277c-5.87-5.26-17.36-16.67-32.76-50.23a371.34,371.34,0,0,1-25.1-75.23,175,175,0,0,1-2.39-28.77c0-13.32,0-22.88,4.54-34.44a67.57,67.57,0,0,1,12.66-20.55c5.75-6.36,12.54-11.34,24.64-17.21,14.13-6.89,27.89-11.32,47.35-15.79a500.2,500.2,0,0,1,54-9.34c25.42-.22,49.83-1.66,76.25-.7,16.23-.2,26,1.44,42.48,4,4.55.56,18,2.91,25.06,5.4,5.77,2.06,19.7,7.19,31.7,20.19C911.78,70.16,915,88.27,915.91,95.56A265,265,0,0,1,916.86,143.12Z"/></svg>